<svg width="47" height="44" viewBox="0 0 47 44" fill="none" xmlns="http://www.w3.org/2000/svg">
<path d="M36.8398 23.8968C36.8107 23.855 36.7854 23.8259 36.7575 23.7879C35.4197 22.1326 33.2732 21.691 31.381 22.6452C30.2748 23.2552 29.5205 24.16 28.7383 25.0737C27.6929 26.3392 26.5563 27.7579 25.4008 28.9146C26.3121 28.2426 27.1828 27.5048 28.0321 26.7505C28.7649 26.1089 29.8091 25.1294 30.5849 24.5789C31.9594 23.5627 33.6339 23.1324 34.8907 24.1486C34.8869 24.1512 34.8831 24.1524 34.8793 24.1537C33.9984 24.6029 33.4137 25.4622 33.0542 26.3481C32.6948 27.2542 32.5188 28.2704 32.1695 29.1095C31.6417 30.4509 30.8494 31.5064 29.7863 32.539C28.2852 33.9729 26.369 34.431 24.3845 35.1574C23.515 35.4598 22.591 35.8167 21.7139 36.2672C22.0405 35.8623 22.3417 35.4396 22.6125 34.9967C23.3909 33.7172 23.9605 32.3252 24.2161 30.8736C22.6404 33.2705 20.9925 35.4776 18.7207 37.1987C16.5096 38.9084 13.8947 40.0714 11.1748 40.7611C12.6468 41.0104 14.1605 40.8016 15.5882 40.3903C16.7234 40.0562 17.8068 39.5475 18.8004 38.8983C22.934 37.0342 27.9182 38.3351 31.6709 35.3725C33.9883 33.5527 35.3514 30.9445 35.2552 27.9844C35.2489 27.5921 35.2375 27.2985 35.2261 26.9606C35.4096 24.9231 36.7651 24.5511 38.6016 24.7991C38.1156 24.3524 37.4941 24.0284 36.8398 23.8968Z" fill="#0D0D12"/>
<path d="M33.1998 24.7004C33.3878 24.7004 33.5402 24.548 33.5402 24.36C33.5402 24.1719 33.3878 24.0195 33.1998 24.0195C33.0118 24.0195 32.8594 24.1719 32.8594 24.36C32.8594 24.548 33.0118 24.7004 33.1998 24.7004Z" fill="#0D0D12"/>
<path d="M13.7074 21.4509C13.7643 21.6622 13.8517 21.9837 13.8517 21.9837C14.6073 24.5008 17.6005 24.8741 19.8015 24.5831C20.585 24.5097 21.3507 24.473 22.1126 24.616C22.1038 24.0402 21.276 23.2555 21.276 23.2555C21.5342 23.5441 21.7266 23.8896 21.7772 24.2452C20.4306 23.9313 19.0307 24.1452 17.6841 23.9035C16.745 23.7402 15.7109 23.2657 15.1717 22.4785C15.9944 22.5418 16.8019 22.519 17.5588 22.5481L20.6862 22.705L15.6856 20.8612C14.4617 20.4954 13.2619 19.8525 12.4113 18.9135C12.3772 18.8743 12.3493 18.8325 12.3164 18.792C13.5973 19.2565 14.9338 19.5754 16.245 19.8601C16.245 19.8601 13.7605 17.8176 10.4445 15.9092C8.96623 15.0588 7.04749 13.5085 6.96902 11.6823C8.05622 14.0008 10.9925 14.8613 13.2074 15.8231C14.7376 16.4597 16.2488 17.1912 17.7132 17.9492C20.4799 19.3818 24.9831 22.1368 24.9236 25.6233C24.549 24.621 22.9188 23.1935 22.9188 23.1935C23.9896 24.3084 24.73 25.8043 24.5401 27.3533L24.368 28.9175L25.1768 27.5355C27.617 22.862 21.8785 18.6579 18.165 17.0292C16.121 16.0851 13.9567 15.3916 11.8342 14.7082C9.8775 14.0109 7.4968 13.0175 7.06901 10.7585L6.94118 10.0562L6.67666 10.7218C6.22735 11.9152 6.76778 13.1833 7.43605 14.1653C8.13976 15.1587 9.05609 15.9585 10.0737 16.647L10.3053 17.6392C10.4926 18.4428 10.8989 19.1831 11.4216 19.7817C12.0671 20.522 12.8518 21.0523 13.7074 21.4509Z" fill="#0D0D12"/>
<path d="M22.4883 8.52382C22.2048 9.23884 21.8808 10.0703 21.9301 10.798C21.9681 13.2986 23.859 15.0919 25.4879 16.732C26.2068 17.4824 26.8042 18.3088 27.1889 19.2618L27.4079 18.8846C27.6914 18.3949 27.7471 17.8305 27.6927 17.3179C27.6395 16.8003 27.156 15.8246 27.1763 15.8879C27.3092 16.365 27.399 16.8535 27.399 17.3331C27.3978 17.6381 27.3509 17.9393 27.2497 18.2101C26.2397 15.9081 23.8122 14.4427 23.1553 11.9825C23.0692 11.6686 23.0173 11.3523 23.0034 11.0384C23.6944 12.0584 26.7447 14.4908 26.7447 14.4908C26.7447 14.4908 22.6604 7.63163 22.3086 5.48784C22.1959 4.79307 22.1959 3.97681 22.4946 3.32507C22.4402 4.00845 22.5769 4.70322 22.8325 5.33724C23.3957 6.70907 24.2804 7.87588 25.1158 9.07559C26.4384 11.0511 27.6547 13.1392 28.5622 15.3298C29.3152 17.1787 29.9784 19.7553 28.9507 21.5283C29.0115 21.198 29.0368 20.8627 29.0203 20.5349C28.9824 19.6085 28.1698 17.9153 28.1926 17.9785C28.7267 19.5769 28.8279 21.4536 27.7002 22.7976L26.7067 24.029L28.1331 23.3051C30.167 22.2965 30.6189 19.8819 30.2784 17.8456C29.8139 14.8236 28.104 12.3419 26.3549 9.97285C25.2322 8.41373 23.8463 7.02545 23.1376 5.21955C22.8009 4.36153 22.7022 3.39087 23.0907 2.54298L23.3882 1.86719L22.7743 2.28861C21.7517 3.03147 21.5669 4.40456 21.6631 5.5663C21.7453 6.61036 22.063 7.5886 22.4883 8.52382Z" fill="#0D0D12"/>
</svg>
