<?xml version="1.0" encoding="utf-8"?>
<!-- Generator: Adobe Illustrator 28.0.0, SVG Export Plug-In . SVG Version: 6.00 Build 0)  -->
<svg version="1.1" id="Layer_1_copia_2" xmlns="http://www.w3.org/2000/svg" xmlns:xlink="http://www.w3.org/1999/xlink" x="0px"
	 y="0px" viewBox="0 0 536.45 508.84" style="enable-background:new 0 0 536.45 508.84;" xml:space="preserve">
<style type="text/css">
	.st0{fill:#FFFFFF;}
</style>

<g transform="scale(1.3) translate(-60, -60)">
	<path class="st0" d="M371.25,257.72c-3.41-4.53-7.4-7.75-12.35-10.35c-27.65-12.84-44.99,11.33-60.19,30.03
		c-5.68,6.89-11.52,13.6-17.81,19.98c14.32-10.29,27.09-23.76,40.97-34.26c10.27-7.97,24.33-11.26,34.1-3.44
		c-0.05,0.03-0.11,0.05-0.16,0.08c-10.57,5.52-14.93,17.04-17.68,27.59c-4.96,19.27-14.71,34.02-30.84,45.14
		c-16.43,9.8-37.82,14.04-55.71,23.06c8.23-10.11,14.47-21.78,17.85-34.28c2.79-10.13,2.75-9.63-2.85-1.33
		c-2.55,4.19-6.78,9.79-9.8,13.74c-21.58,29.02-53.02,48.65-88.26,57.29c21.12,2.89,42.27-3.02,59.92-14.57
		c29.57-13.52,62.18-6.16,91.55-21.31c23.32-12.08,40.09-38.4,38.79-65.07c-1.75-19.64,6.19-28.08,26.44-25.19
		C381.28,261.38,376.42,258.77,371.25,257.72z"/>
	<path class="st0" d="M345.2,261.39c0-1.49-1.2-2.69-2.69-2.69s-2.69,1.2-2.69,2.69s1.2,2.69,2.69,2.69S345.2,262.88,345.2,261.39z"
		/>
	<path class="st0" d="M258.15,260.5c12.13,7.03,22.15,17.9,22.13,32.61c3.14-6.9,3.23-15.68-0.05-23.34
		c-12.62-27.32-49.76-40.54-76.17-49.31c-17.21-5.64-47.22-10.6-52.19-31.05c-2.34,7.75,2.3,16.15,7.39,21.89
		c10.67,11.84,25.48,17.63,39.9,23.15C218.99,242.39,240.16,249.77,258.15,260.5z"/>
	<path class="st0" d="M252.97,279.29c0.5-7.86-5.32-14.88-10.89-19.73c-5.83-4.95-12.56-8.34-19.45-10.66
		c-12.73-4.4-23.74-8.13-35.57-15.74c1.96,15.37,17,25.91,30.59,30.55C229.92,268.29,242.61,270.85,252.97,279.29z"/>
	<path class="st0" d="M228.42,288.52c8.33,3.17,16.58,3.73,24.55,8.05c1.33-5.6-2.49-11.26-6.26-14.97
		c-11.06-10.2-24.51-9.91-38.03-16.03C208.22,276.74,218.84,285.32,228.42,288.52z"/>
	<path class="st0" d="M263.51,167.71c12.16,17.55,25.74,35.39,34.82,54.27c6.24,12.56,8.59,27.15,0.45,39.41
		c6.43-4.02,11.35-11.3,12.85-19.49c4.53-29.85-19.08-61.19-36.3-83.16c-11.24-14.2-33.53-34.9-26.38-54.7
		c-6.23,5.17-6.99,14.74-5.92,22.34C245.38,142.15,254.54,155.14,263.51,167.71z"/>
	<path class="st0" d="M254.14,159.94c-6.85,13.9-0.12,30.99,8.65,42.36c7.7,10.59,16.87,19.73,20.85,32.49
		c4.76-6.28,3.78-15.35,1.81-22.47c-2.12-7.35-5.87-13.89-10.34-19.63C266.92,182.01,259.81,172.82,254.14,159.94z"/>
</g>
</svg>
